<svg width="200" height="200" viewBox="0 0 200 200" xmlns="http://www.w3.org/2000/svg">
  <!-- Background rounded rectangle with teal color -->
  <rect x="10" y="10" width="180" height="180" rx="20" ry="20" fill="#0f4c5c" stroke="none"/>
  
  <!-- Robot head circle -->
  <circle cx="100" cy="70" r="20" fill="#ffffff"/>
  
  <!-- Robot eyes -->
  <circle cx="94" cy="67" r="3" fill="#0f4c5c"/>
  <circle cx="106" cy="67" r="3" fill="#0f4c5c"/>
  
  <!-- Robot antenna/connectors -->
  <circle cx="85" cy="45" r="2" fill="#ffffff"/>
  <circle cx="115" cy="45" r="2" fill="#ffffff"/>
  <line x1="88" y1="55" x2="85" y2="47" stroke="#ffffff" stroke-width="1.5"/>
  <line x1="112" y1="55" x2="115" y2="47" stroke="#ffffff" stroke-width="1.5"/>
  
  <!-- Robot body/chest -->
  <rect x="85" y="90" width="30" height="20" rx="3" ry="3" fill="#ffffff"/>
  
  <!-- Wrench tools crossed -->
  <g transform="translate(70, 120) rotate(-30)">
    <rect x="0" y="0" width="20" height="3" rx="1.5" ry="1.5" fill="#ffffff"/>
    <rect x="16" y="-2" width="6" height="7" rx="1" ry="1" fill="#ffffff"/>
  </g>
  
  <g transform="translate(110, 120) rotate(30)">
    <rect x="0" y="0" width="20" height="3" rx="1.5" ry="1.5" fill="#ffffff"/>
    <rect x="16" y="-2" width="6" height="7" rx="1" ry="1" fill="#ffffff"/>
  </g>
  
  <!-- Circuit pattern decorations -->
  <circle cx="40" cy="50" r="1.5" fill="#ffffff"/>
  <circle cx="160" cy="50" r="1.5" fill="#ffffff"/>
  <circle cx="40" cy="130" r="1.5" fill="#ffffff"/>
  <circle cx="160" cy="130" r="1.5" fill="#ffffff"/>
  
  <!-- Connecting lines -->
  <line x1="42" y1="50" x2="83" y2="60" stroke="#ffffff" stroke-width="1" opacity="0.6"/>
  <line x1="158" y1="50" x2="117" y2="60" stroke="#ffffff" stroke-width="1" opacity="0.6"/>
  <line x1="42" y1="130" x2="83" y2="120" stroke="#ffffff" stroke-width="1" opacity="0.6"/>
  <line x1="158" y1="130" x2="117" y2="120" stroke="#ffffff" stroke-width="1" opacity="0.6"/>
</svg>