<svg width="200" height="200" viewBox="0 0 200 200" xmlns="http://www.w3.org/2000/svg">
  <!-- Background rounded rectangle -->
  <rect x="10" y="10" width="180" height="180" rx="20" ry="20" fill="#0f4c5c" stroke="none"/>
  
  <!-- Robot head circle -->
  <circle cx="100" cy="80" r="25" fill="#ffffff"/>
  
  <!-- Robot eyes -->
  <circle cx="92" cy="75" r="4" fill="#0f4c5c"/>
  <circle cx="108" cy="75" r="4" fill="#0f4c5c"/>
  
  <!-- Robot antenna/connectors -->
  <circle cx="80" cy="50" r="3" fill="#ffffff"/>
  <circle cx="120" cy="50" r="3" fill="#ffffff"/>
  <line x1="85" y1="65" x2="80" y2="53" stroke="#ffffff" stroke-width="2"/>
  <line x1="115" y1="65" x2="120" y2="53" stroke="#ffffff" stroke-width="2"/>
  
  <!-- Robot body/chest -->
  <rect x="80" y="100" width="40" height="30" rx="5" ry="5" fill="#ffffff"/>
  
  <!-- Wrench tools -->
  <g transform="translate(60, 140) rotate(-15)">
    <rect x="0" y="0" width="25" height="4" rx="2" ry="2" fill="#ffffff"/>
    <rect x="20" y="-3" width="8" height="10" rx="1" ry="1" fill="#ffffff"/>
  </g>
  
  <g transform="translate(115, 140) rotate(15)">
    <rect x="0" y="0" width="25" height="4" rx="2" ry="2" fill="#ffffff"/>
    <rect x="20" y="-3" width="8" height="10" rx="1" ry="1" fill="#ffffff"/>
  </g>
  
  <!-- Circuit pattern decorations -->
  <circle cx="40" cy="60" r="2" fill="#ffffff"/>
  <circle cx="160" cy="60" r="2" fill="#ffffff"/>
  <circle cx="40" cy="140" r="2" fill="#ffffff"/>
  <circle cx="160" cy="140" r="2" fill="#ffffff"/>
  
  <!-- Connecting lines -->
  <line x1="42" y1="60" x2="78" y2="70" stroke="#ffffff" stroke-width="1" opacity="0.7"/>
  <line x1="158" y1="60" x2="122" y2="70" stroke="#ffffff" stroke-width="1" opacity="0.7"/>
  <line x1="42" y1="140" x2="78" y2="130" stroke="#ffffff" stroke-width="1" opacity="0.7"/>
  <line x1="158" y1="140" x2="122" y2="130" stroke="#ffffff" stroke-width="1" opacity="0.7"/>
</svg>